
<global>
amp_veltrack=0
</global>

<group>
ampeg_attack=0.0000
ampeg_decay=20
ampeg_release=0.35
ampeg_sustain=0
group_label=Group_0-45
lpc_hicc1=42
lpc_locc1=0

<region>
hivel=127
key=a3
lovel=0
lpc=GtQOQoKMg8KWLZpBDxHBQCkYRkEFCuq/eVsFwOONZsDACFS/L5d+P0m5wb2gnw6/xHiIPvV0Vb8iSQW/pjmWP/k1aj8cuyQ/hyTXPkQveL+bbTu+95KNv1PnA79ouq0/
lpc_rms=-38.63
sample=Alto_invertedmordent_wholetone_PP_A3.opus
tune=+21
</region>

<region>
hikey=a4
hivel=127
lokey=g#4
lovel=0
lpc=VA3+QYntbMJ1Dv9BMlw4wb9cfEEI2irBjacdQdyD98Dfoly/dzaAQKFB7b6FPtjAza/0QMKChMAfKQbAwbMIQaMOwcAmxSBApiP4vmyJ5L9lwOy9DQBsP0NrMj/8Ig4/
lpc_rms=-34.09
offset=4829
pitch_keycenter=a4
sample=Alto_invertedmordent_wholetone_PP_A4.opus
tune=+6
</region>

<region>
hikey=a5
hivel=127
lokey=g#5
lovel=0
lpc=1i4lQhYtWsIGeXpBWYsTwaTMdEEDJQjBK2VHQQTSw7/R8LjA8blewGPDGkG8Oi7BlLiLQYi7GsEs8pBAvgEZwJc3ccA/Uro/MwoCQFJZbUC1n6870Jejv4xwmMAyj1xA
lpc_rms=-22.33
offset=1678
pitch_keycenter=a5
sample=Alto_invertedmordent_wholetone_PP_A5.opus
tune=-12
</region>

<region>
hikey=b3
hivel=127
lokey=a#3
lovel=0
lpc=uCEsQpNolcJmkJlBd0rJQO7bX0Hn8LnA75ueP+v9e8Ch71tAiaJPv0VTD8Apj3S/EjKTOwaUDz4LTog/4ZuOP1KGyb8jDms+gJ2gP9/7rj99F0G/R4rnvq+PksB/OXhA
lpc_rms=-36.02
offset=132
pitch_keycenter=b3
sample=Alto_invertedmordent_wholetone_PP_B3.opus
tune=+9
</region>

<region>
hikey=b4
hivel=127
lokey=a#4
lovel=0
lpc=ZiTwQeSjUsJx7+hBzZyRwWAtrUG+tVLBA/1/QSc1b8HdNKpAqqajv0gmID/d78HAzRYfQepe0MC4mLi/LOniQGnl28BcvLRAYKnsvmDIiL+9+pi/2Yi6P+xUDMDuzitA
lpc_rms=-31.02
offset=2151
pitch_keycenter=b4
sample=Alto_invertedmordent_wholetone_PP_B4.opus
tune=+6
</region>

<region>
hikey=b5
hivel=127
lokey=a#5
lovel=0
lpc=OT6KQU1hisEtcW6/IvCmvw0GDkFqzkK/4aAdv/WBnz9Je53AZ+WIQMaND0CeRzLA7E1aQG9k3D4ekP6/JLwbPq8BAb5+xv4/C1ndP1a6EkAa12zAYMQnwA7gXj/FOApA
lpc_rms=-28.45
offset=1636
pitch_keycenter=b5
sample=Alto_invertedmordent_wholetone_PP_B5.opus
tune=-27
</region>

<region>
hikey=c#4
hivel=127
lokey=c4
lovel=0
lpc=1beAQtV92sLWxepBfyOVQCs610GgY4/BlBI+Qf2h68A4Gmi/6W75P0r1RsDxSIPAVkZeQNMOjr21LgXAGg4PQMkh5T/vVoA6E/RuPvA33r9b35k/MRGzvwAgyMAZnvZA
lpc_rms=-31.58
pitch_keycenter=c#4
sample=Alto_invertedmordent_wholetone_PP_C#4.opus
tune=+10
</region>

<region>
hikey=c#5
hivel=127
lokey=c5
lovel=0
lpc=mqiBQRkJ2cEckz5B9zjvwG3+L0HEBKnAv1DcQMGJ68CxIYRAZDD/vygWH0AOc8HArqakQHWVbcDeE9Q/HXvxPw1NAMA7QPk/mWSBP4dLk72NACnAt2x8P2gMWsCX+3dA
lpc_rms=-36.29
offset=1283
pitch_keycenter=c#5
sample=Alto_invertedmordent_wholetone_PP_C#5.opus
tune=+6
</region>

<region>
hikey=c#6
hivel=127
lokey=c6
lovel=0
lpc=0jjxQRE3mMEs1hfBp9aewLT1HUGw2+Q+WgzLQHJxk0A6UBvBRew+v/sLU0H3zuq/IrV0QOxD3cAPeo7AO5b7QKoflUDP9GxAV3flv4uYFb/CIpPABj7PwEAawkAgacFA
lpc_rms=-21.91
offset=294
pitch_keycenter=C#6
sample=Alto_invertedmordent_wholetone_PP_C#6.opus
tune=-21
</region>

<region>
hikey=d#4
hivel=127
lokey=d4
lovel=0
lpc=HyMyQv1NwsIO6GFCk2/mwC//jEGoSYrBuDQZQReF9sBtCoK/yGGhQMUxLsDRvIrAwpXrQE2ZxMAFqro/8gC3QMh1dsAQrxNADf4EwHPdFMA+DB1AuWKdv5xzJ77kr6Y/
lpc_rms=-31.92
pitch_keycenter=d#4
sample=Alto_invertedmordent_wholetone_PP_D#4.opus
tune=-4
</region>

<region>
hikey=d#5
hivel=127
lokey=d5
lovel=0
lpc=1iiWQZQ4vMFda3tAmXeiwKrBLkHrjjPAvvarQOnr4cDjTWJA864bv27XfECvFd/A3SBXQJy4C8CaMlc/Ad0wQDXXHL+bpu8/cRW1vicwCkBkS4PAXp0dvyO/I8AMor9A
lpc_rms=-32.11
offset=1945
pitch_keycenter=d#5
sample=Alto_invertedmordent_wholetone_PP_D#5.opus
</region>

<region>
hikey=f4
hivel=127
lokey=e4
lovel=0
lpc=9LAsQqnsucKu+VpCwHtnwWL/0kECoaDBlW3bQAcwE0CvxTPBX4cDQciOLcACIRTBp456QQCE38Aj+Q/AtvXUQEX/lr9XP2q/1xWcv8wnBsCpu1i7+X2nP1+oEj/4okA+
lpc_rms=-31.40
offset=1164
pitch_keycenter=f4
sample=Alto_invertedmordent_wholetone_PP_F4.opus
tune=-8
</region>

<region>
hikey=f5
hivel=127
lokey=e5
lovel=0
lpc=kJ+MQqKTz8IYIf5B3AxnwXR6MULWL5bBLKI9QaZNnsHa7BdBrAaQPn8dYEEzLe3BGqfIQYaefsFirxRBIVACQWfxCr4N6ADAfHsCP3tpJMFWzVdAgOZpQNWuA0EhQwzA
lpc_rms=-20.00
offset=1615
pitch_keycenter=f5
sample=Alto_invertedmordent_wholetone_PP_F5.opus
tune=-8
</region>

<region>
hikey=g4
hivel=127
lokey=f#4
lovel=0
lpc=SoySQjguGMOMmatC9vfowYRRdkIT3irC3W1cQcI/NMG9sW3BUtDcQWdqI8GiWZLAl+YaQf+MYsHl/KpA5QsUQde69MBQeFM/1PhgQPApC0Af7NLAzXeRQNuvG8FgIP5A
lpc_rms=-27.11
offset=375
pitch_keycenter=g4
sample=Alto_invertedmordent_wholetone_PP_G4.opus
tune=-11
</region>

<region>
hikey=g5
hivel=127
lokey=f#5
lovel=0
lpc=ZmC9QQiKAMK2bthAqIhLwI/uSUFgFkjAgSURQI1Rv8AqLuo/P3NnPy3LkUB2RgXBKjfXQDHWKMA9sxe+nVMKQBmIKD5Wfuq/j4nqP5rcBMClq2tAmb6HPiBn6L7UmaO/
lpc_rms=-27.91
offset=2140
pitch_keycenter=g5
sample=Alto_invertedmordent_wholetone_PP_G5.opus
tune=-26
</region>
</group>

<group>
ampeg_decay=20
ampeg_release=0.35
ampeg_sustain=0
group_label=Group_46-90
lpc_hicc1=84
lpc_locc1=43

<region>
hivel=127
key=a3
lovel=0
lpc=GX8UQhwtrMJ4/nhCCCrcwRxu/0HPm4jBKXwZQfh8YMEFbiDBV4uTQbz9c747LavAucQqQd/lk8HRUfFAnqSTQHMoIMBUOxtALBYBwKvVa8Dxzq6/FdEVQbxLs8CwcRs/
lpc_rms=-30.06
offset=4796
sample=Alto_invertedmordent_wholetone_MF_A3.opus
tune=+6
</region>

<region>
hikey=a4
hivel=127
lokey=g#4
lovel=0
lpc=L4rrQcfLiMJPX1FCGffPwcVu9EHAod7B9cSyQSJeW8HN4NbAjyFPQS6PjcDj9aTAhgM/Qf4uI8FWPopAZlDIP0pQaMDOmti+CQ6VPo9NmkAtgrzAqnjXQEN2+8BJTXBA
lpc_rms=-24.39
offset=9277
pitch_keycenter=a4
sample=Alto_invertedmordent_wholetone_MF_A4.opus
tune=-6
</region>

<region>
hikey=a5
hivel=127
lokey=g#5
lovel=0
lpc=SbR9QYhqjsFyZD9Aoiyev9T9sEDIxf+/bzFGQK25ML7PyDvAa44UvXg/JUD0oFS/jrhiQLEbfsCUOHw/arBtQAA7HcBxxFu+cZGoPUI4qD8+m6A/+4BHP0wbnr9nMnu/
lpc_rms=-23.86
offset=1350
pitch_keycenter=a5
sample=Alto_invertedmordent_wholetone_MF_A5.opus
tune=-21
</region>

<region>
hikey=b3
hivel=127
lokey=a#3
lovel=0
lpc=CB81Qn0l18JPOp5CaJf6wSBXJELHag/C1MelQXXSOsF2z4XB+prXQVfHAMHqV1fAE2PFQHdVTMHKoxlB9s8IQIT5AsC/mny/02M/vZiwBL9r41PAyFscQQLaEMFNikxA
lpc_rms=-27.88
offset=6643
pitch_keycenter=b3
sample=Alto_invertedmordent_wholetone_MF_B3.opus
tune=+4
</region>

<region>
hikey=b4
hivel=127
lokey=a#4
lovel=0
lpc=vZH1QdVwZMLccAJCLRmwwV1zBkLnQbjBMQWdQbd7hMHntpnACug8Qd8YgcCVls8+oLKTQEn3tcBeZY/Av9IPQagRb8DQ/BxAAyICwNgOokBTiR/BOP0SQZdr18BJ2HpA
lpc_rms=-25.59
offset=2114
pitch_keycenter=b4
sample=Alto_invertedmordent_wholetone_MF_B4.opus
tune=+1
</region>

<region>
hikey=b5
hivel=127
lokey=a#5
lovel=0
lpc=xWkUQmwr28FFefI+IpuMwBCqVEGTv9TAzZsIQTzYJ8Cwm6TAUo4UQIMMAD9mfCK/KhsNQe/D4D/jZ13BVzToQPL6CcD+f79A28jNPnagLT8xzkPAWGi2P7GDer+B8RvB
lpc_rms=-17.05
offset=1838
pitch_keycenter=b5
sample=Alto_invertedmordent_wholetone_MF_B5.opus
tune=-8
</region>

<region>
hikey=c#4
hivel=127
lokey=c4
lovel=0
lpc=Vxn7QfCJicJo6TFCmhyDwduT0kHJ+cbB96OUQVyOlMHVQKFAXFLkQMyUEMBUJpHAsq21QAVTrMCOcb2/+PEbQRXHBcHpDpBAgSMQwDicYD82Al/AoXHXQHit48AVs1lA
lpc_rms=-29.41
offset=724
pitch_keycenter=c#4
sample=Alto_invertedmordent_wholetone_MF_C#4.opus
</region>

<region>
hikey=c#5
hivel=127
lokey=c5
lovel=0
lpc=4bMYQenbecHambhAnv0NwO3jz0DXZYzAatg+QGHoLMBda5u+T0oRQA3GwLz09BnAAqT8Pzt1k79R/pS+X4fvP1K89L8XlME/ezn4vu6h6z9TkzLAhCUWQIe7UcDm8hFA
lpc_rms=-30.17
offset=1917
pitch_keycenter=c#5
sample=Alto_invertedmordent_wholetone_MF_C#5.opus
tune=-3
</region>

<region>
hikey=c#6
hivel=127
lokey=c6
lovel=0
lpc=OpXFQTNtnMGNgKfAsNPNvewRHEE7pAC/B02QQLr4JcD1+bC/xLSLP9M/CkHnH8S/ON5EQGd5KcAuwwvAQ5jLQAChyT8gPxY/MXfHP7cnYD+Z8GDANbzPvwo5YT99ebhA
lpc_rms=-19.77
offset=4641
pitch_keycenter=C#6
sample=Alto_invertedmordent_wholetone_MF_C#6.opus
tune=-25
</region>

<region>
hikey=d#4
hivel=127
lokey=d4
lovel=0
lpc=e14FQiI7pMIwbIZC//PzwX9UAEKOlQDCV/DPQQWipsHntnNALRjgQAAAUsDe4YfAOLUSQZh6BcGwRpa/sVdmQVRoisGLTitBzKUnwEmJkT+6kwHBfigUQc3OZcB0fyA/
lpc_rms=-26.50
offset=9152
pitch_keycenter=d#4
sample=Alto_invertedmordent_wholetone_MF_D#4.opus
tune=-5
</region>

<region>
hikey=d#5
hivel=127
lokey=d5
lovel=0
lpc=dvjsQSJqN8Jm74FBFoaHwC6BZUEvPRnBoVEOQecMqMCpW12/lnZnwMf6AUGZxMHAcRS+QCAQfMAWDVg/mVduP3hbkcAEWAhBcAsowNT/eEDvx4fA/Eavv6OXVcBzVNtA
lpc_rms=-21.81
offset=2260
pitch_keycenter=d#5
sample=Alto_invertedmordent_wholetone_MF_D#5.opus
tune=-4
</region>

<region>
hikey=f4
hivel=127
lokey=e4
lovel=0
lpc=B89LQuxn9cJ/J7xCUBkVwsMjOEKZty/COFx1QTSyP8CdcgQ/gr62QH4SocCc3XrB52fxQb3QpMGcbK5A8iSbQAGZN8DtXcm+AbgBvt2zi8B1NHBAs+08v2PBij94pdO+
lpc_rms=-22.52
offset=628
pitch_keycenter=f4
sample=Alto_invertedmordent_wholetone_MF_F4.opus
tune=-6
</region>

<region>
hikey=f5
hivel=127
lokey=e5
lovel=0
lpc=Q/srQj0hgMLlm8NBlFZ4wXuLBkLUPcbBq9qOQTAzQ8ASXUzBwXEaQdcwPEDChobAzwXsvzrV8z/xOh0/+rUFQa8mWsCNhAi/QRKFv/ODyT/TWPbA3t7vQAAjD0Adt5E+
lpc_rms=-16.07
offset=2195
pitch_keycenter=f5
sample=Alto_invertedmordent_wholetone_MF_F5.opus
tune=-11
</region>

<region>
hikey=g4
hivel=127
lokey=f#4
lovel=0
lpc=kx9VQtLP/cLqS8JCLMkZwvp/LUK1wzTCZEjoQfWPJ8H0EoLBRBK+QVUYQ8CReX3Bx3qmQW4UusF8v2JBAimWv37qib7dRfdA5+kYwbWmbECe3A3BXQF4QWmbc8ENyOBA
lpc_rms=-21.59
offset=607
pitch_keycenter=g4
sample=Alto_invertedmordent_wholetone_MF_G4.opus
tune=-14
</region>

<region>
hikey=g5
hivel=127
lokey=f#5
lovel=0
lpc=NVlXQb9vjsHH68VAt8eJwLCrFUE5QdLAASanQFX+vb8ZtxXA3WtDQHysbb8LN5i/94tEP6K2sD+acuC+iEafQHkljsAEMIS/gZMZv/hEgEDAGiLAQ7NxQJIqqL8AU6m+
lpc_rms=-26.71
offset=1178
pitch_keycenter=g5
sample=Alto_invertedmordent_wholetone_MF_G5.opus
tune=-22
</region>
</group>

<group>
amp_veltrack=0
ampeg_decay=25.0000
ampeg_release=0.35
ampeg_sustain=0
group_label=Group_91-127
lpc_hicc1=127
lpc_locc1=85
volume=3

<region>
hivel=127
key=a3
lovel=0
lpc=9ZYCQqUFlsIU6WZCWVjxwZF8C0KWBubBLAqQQXTMeMHb4h5BAS0JwFISIECIOTPBeo9qQY/fQ8HHY75APk5tP2UEzb5Lf4m98DDOP0eLo7/kap7Ahj2jQACUnr8jF+g+
lpc_rms=-26.09
offset=2120
sample=Alto_invertedmordent_wholetone_FF_A3.opus
tune=-3
</region>

<region>
hikey=a4
hivel=127
lokey=g#4
lovel=0
lpc=iBCxQVoRMMJobdVBsR8iwf8yZEGieXHBR19dQUiIO8EjRg5Aaj6+QKMW7L/iskrAJvclQGwt176V3sHA5ChpQUcYUME2yaRAB8IxwGMvq0CRQsbA8l18QASFgcAm4zxA
lpc_rms=-21.20
offset=3428
pitch_keycenter=a4
sample=Alto_invertedmordent_wholetone_FF_A4.opus
tune=-11
</region>

<region>
hikey=a5
hivel=127
lokey=g#5
lovel=0
lpc=U5SbQdTRx8G+vwNBcc3+v1/q00CKyBXATcP0vZfajD8IpgU+c50FQCoDvr84DlPACEvFQLEXfr9OtpK/bNdOQEZEp8AzS6xA3UU4Pz1syb/1a8W+V6YMQBmaWD+mZhXA
lpc_rms=-16.65
offset=612
pitch_keycenter=a5
sample=Alto_invertedmordent_wholetone_FF_A5.opus
tune=-21
</region>

<region>
hikey=b3
hivel=127
lokey=a#3
lovel=0
lpc=fL8KQtKxpsL+cYVCrR4Dwls2IEIzjCbCEKvjQTCJX8HTFWbAk8trQQ85esGluAtB0xcuwF7/sb6+b6c/2rynQCrku8B6VAy/7PW2PxtqLD5vGqfAkTn+QPMdGMDmYhG/
lpc_rms=-23.65
offset=12546
pitch_keycenter=b3
sample=Alto_invertedmordent_wholetone_FF_B3.opus
tune=-4
</region>

<region>
hikey=b4
hivel=127
lokey=a#4
lovel=0
lpc=gG3cQToRVcKqcO5B2vZUwdnWxEGKNYbBDe+eQI3T2sB17sFAjK86vgjskj/EXRDBuHofQedt38A5lZdAlHD/PmwKl7/svTG/byvPPo4oY785buo9Kn3NQMJDG8GWzp1A
lpc_rms=-20.59
offset=1686
pitch_keycenter=b4
sample=Alto_invertedmordent_wholetone_FF_B4.opus
tune=-2
</region>

<region>
hikey=b5
hivel=127
lokey=a#5
lovel=0
lpc=+lZFQZ+xhcFgrfJAg2kUwJAGaUAavwLAJZeCP4mL3D+zdlPAxINdQGo1Er+Qtny/iJRdQPPDGMBsyOw+HVulPwRkt7+vFBNAuDxXv7HM7j/vNU3AuuyRQBh5tMCqUihA
lpc_rms=-18.04
offset=1340
pitch_keycenter=b5
sample=Alto_invertedmordent_wholetone_FF_B5.opus
tune=-34
</region>

<region>
hikey=c#4
hivel=127
lokey=c4
lovel=0
lpc=IM7iQTXOh8JD6l1CaDDvwXweCkIoXP3B1qq2QTvLuMHt/IRBTN63wK6TiUB9xRvBKzZWQRF8N8GDEIVAQigpQCCNTcBQio29u2v/PryzjD/Y/Bq/tPAnPyZj6r/ytI0/
lpc_rms=-24.12
offset=1255
pitch_keycenter=c#4
sample=Alto_invertedmordent_wholetone_FF_C#4.opus
tune=-4
</region>

<region>
hikey=c#5
hivel=127
lokey=c5
lovel=0
lpc=y/w4QQi8nsHCaAFBtSdLwFNPEkEmWcnAsgX9P9H2pb4tZYe/gmkRQG/LsL/6PO+/Oe4ZQMXMr79qyJc/qXFTvztIU76u0sc/SuQ/v7u03j+7JADA4HiePwgwZcAi4jxA
lpc_rms=-24.97
offset=4658
pitch_keycenter=c#5
sample=Alto_invertedmordent_wholetone_FF_C#5.opus
tune=-6
</region>

<region>
hikey=c#6
hivel=127
lokey=c6
lovel=0
lpc=BAXlQToenMFu7oDA0tDtv8a3D0H40Om/A9l8QDS3vEAtl7TAXEzTQFtbfkBs0+++EleSQKoFLECXbm3AsrfZQIvAg0Ctm6C/DwNeQC3wxUAOIgTB99nswEZQkEDOw0FB
lpc_rms=-12.42
offset=1037
pitch_keycenter=C#6
sample=Alto_invertedmordent_wholetone_FF_C#6.opus
tune=-33
</region>

<region>
hikey=d#4
hivel=127
lokey=d4
lovel=0
lpc=NEOjQcQ9McKWWNBBVcRfwM29RkF2SXLB6pvbQF7TzcCBlNBAY6JnwAG8kUDDFQbBGXUKQVDbw8AYrZlA+o/7v72jNL/TLtS/V+mrQHJsdcBBmKu+Y9FmP5IaBj4zVxS9
lpc_rms=-23.16
offset=6352
pitch_keycenter=d#4
sample=Alto_invertedmordent_wholetone_FF_D#4.opus
tune=-5
</region>

<region>
hikey=d#5
hivel=127
lokey=d5
lovel=0
lpc=s2GmQepT78FUrgJBeHlAwL9nR0EsTN3A1JiIQGKKs8Cs7DRA3pOaPxx2g0ASIxbBmqK/QFKPKsDZsnQ/1TAkQMY0SMCGir4/tuxnQAyuB0B+oZnADofAv2knX8AyUuJA
lpc_rms=-20.45
offset=1214
pitch_keycenter=d#5
sample=Alto_invertedmordent_wholetone_FF_D#5.opus
tune=-6
</region>

<region>
hikey=f4
hivel=127
lokey=e4
lovel=0
lpc=arYqQgi/wcLk845C2ETuweyRHEKt5yzChFkQQvVOIsKalRBC6GatwX2qi0FrEtfB+CcJQiTC5cGrG25BkT3Rv/yMS8BcAr8/V5zkQFNQH8FrMkNASgJOwGv6uUD46C3A
lpc_rms=-16.42
offset=1593
pitch_keycenter=f4
sample=Alto_invertedmordent_wholetone_FF_F4.opus
tune=-10
</region>

<region>
hikey=f5
hivel=127
lokey=e5
lovel=0
lpc=wQAaQoDuVcL8xmtBcq6zv4KEbkHr9MHAmnRYQDKUW8BnBjrAw+IzQWwvhcC6TsjA9eO0QIYzQT8ZnLvApoZWQUzSysCxATdAGt6SPwjYY8DkwA3An+GMQJyErT6nkFlA
lpc_rms=-12.40
offset=1193
pitch_keycenter=f5
sample=Alto_invertedmordent_wholetone_FF_F5.opus
tune=-13
</region>

<region>
hikey=g4
hivel=127
lokey=f#4
lovel=0
lpc=XRnHQRmcbMLzkjZCHaqTwZ6SzEGxNf/BK27EQWDwrsGUYIBBYAqrwPKuiEDFKDHBT79jQYXCMMEZA21AIOjDQBHIIMHk2Y1As2/rv/LEkkCFddDArHwNQaKi68BF8BlA
lpc_rms=-20.25
offset=958
pitch_keycenter=g4
sample=Alto_invertedmordent_wholetone_FF_G4.opus
tune=-15
</region>

<region>
hikey=g5
hivel=127
lokey=f#5
lovel=0
lpc=nyt+QVbKxMEURB5Bkr3+v/S0+UDN2KLAj83AP+dqgL+9dkO/gZVPQMGyWL/HJvq/TZ83QI+63r/IfIe9mz2RQDv/mMBi4K8/9j+SP2al8L4TUS8+G4GlPxDS6T57okG/
lpc_rms=-17.84
offset=986
pitch_keycenter=g5
sample=Alto_invertedmordent_wholetone_FF_G5.opus
tune=-24
</region>
</group>

<group>
amp_veltrack=0
ampeg_attack=2.5
ampeg_release=0.35
group_label=PP
lpc_hicc1=42
lpc_locc1=0
volume=-3

<region>
hivel=127
key=B3
loop_end=259971
loop_mode=loop_continuous
loop_start=67818
loop_xfade=23004
lovel=0
lpc=Jl9pQjbq8cK74mtCCFA0wNZAqkESaxvBKH6+P/SVxsA5IeDAeuCWQKN+tUACyDTAKVbaPrWtMcB6TfK/LveSQAXmqb/01e8/nZV6Px4IMsBuehc/jX2hvrmGccAGj35A
lpc_rms=-32.46
sample=Alto_sustain_PP_A#3.opus
tune=-99
</region>

<region>
hivel=127
key=B4
loop_end=267580
loop_mode=loop_continuous
loop_start=69803
loop_xfade=23677
lovel=0
lpc=C8ShQVo0EMKoZqNBInaEwS5unkFfejTBWMBKQUCrA8HBOtW+iiy9vyXkgUBEBp7Af2WrQJeTX8A3H/q+PE8uQF3efMDiXK5AEisAwNkDO0AhB4LAlWi5P3N3lsDAppRA
lpc_rms=-32.27
sample=Alto_sustain_PP_A#4.opus
tune=-98
</region>

<region>
hivel=127
key=B5
loop_end=262609
loop_mode=loop_continuous
loop_start=68506
loop_xfade=23237
lovel=0
lpc=gqmZQbnA8cCEy4BAyoSRwAu7q0DsIJbAujUWQKU+XT7sMWA+18B5v9WDDkAxQbG/EeAAQMHA8j7njRTA/PvjPg5hhD/tFDG/bXrWvSJemr4noVZAL7cjwDR8Y8CZPw3B
lpc_rms=-29.08
sample=Alto_sustain_PP_A#5.opus
tune=-100
</region>

<region>
hivel=127
key=A#3
loop_end=251781
loop_mode=loop_continuous
loop_start=65681
loop_xfade=22279
lovel=0
lpc=TR8aQtlkicLjE6dBM+YlQGLhV0F65TrAB2VcPVFyT8AI4K6/DtTDP5svGT87Q7O/rCK6vTPnz790ySQ//3WZP5vuFL51IH8/Zlj0PuASR79UCyq/KCSSvkJtnb+XO/c/
lpc_rms=-38.08
sample=Alto_sustain_PP_A3.opus
tune=-103
</region>

<region>
hivel=127
key=A#4
loop_end=266717
loop_mode=loop_continuous
loop_start=69578
loop_xfade=23600
lovel=0
lpc=nS0SQoVuj8IENDdCLkXbwaqhAULwsqnBk5CRQdA5XMFiOae/fS+UQMQTI0AcRhPB7O0gQbzbn8AunxvA/yjZQDjvw8CG8JlAy9Lbv58jvj/NXve/1zC6P4reh8CrIX1A
lpc_rms=-30.44
sample=Alto_sustain_PP_A4.opus
tune=-99
</region>

<region>
hivel=127
key=A#5
loop_end=267462
loop_mode=loop_continuous
loop_start=69772
loop_xfade=23666
lovel=0
lpc=DU8mQpmd6sEG9K9A0qAtwWVkqEEz+0TBc9GqQORker4bLfW/u5qFQB28hr8hhHLAJFH3QHMACsD+3gnAKhZbQPAVSj9VIPe/V5rcPyWgtb8qTsJAvPpDv66XpL9mn37B
lpc_rms=-23.59
sample=Alto_sustain_PP_A5.opus
tune=-98
</region>

<region>
hikey=C4
hivel=127
lokey=C4
loop_end=266123
loop_mode=loop_continuous
loop_start=69423
loop_xfade=23548
lovel=0
lpc=lXp5QlvqAMMGrH1Ch6IjwM9rrEEIgEvBmbMpQJq04MCFTI2/Nml8QGhNgj4sHITAF9FOQMK6HMBkjLM9WYIRQIce7b/FWWdAJRoHP8hTlcC/ToQ/Hw4XvpgyKT94gBU/
lpc_rms=-31.92
sample=Alto_sustain_PP_B3.opus
tune=-101
</region>

<region>
hivel=127
key=C5
loop_end=272874
loop_mode=loop_continuous
loop_start=71184
loop_xfade=24145
lovel=0
lpc=28CnQcxwDcJUOYpBUvFCwTFUg0ELtQ/BW5k4QfCJM8FC/5ZAUDKqwIlw0EBVgKLASVq9QEwhq8C+Lz2/lruCQG6bLsB+lpVA7pMcwEu+gj9C3yvAOjO4P12QWMAMDoFA
lpc_rms=-31.37
sample=Alto_sustain_PP_B4.opus
tune=-101
</region>

<region>
hivel=127
key=C6
loop_end=269904
loop_mode=loop_continuous
loop_start=70409
loop_xfade=23883
lovel=0
lpc=XtURQoz6dMGv+mpAG28dwf5RLkH5fafANmR/QDymLEASq42/DPK7v25I6UCP7W7AeJOrQFFBt79jdbe/kMJCP7VbMkBch1q/PTVGQOtakT+mDlPAw6xDwWHgrsB/8zpA
lpc_rms=-20.91
sample=Alto_sustain_PP_B5.opus
tune=-99
</region>

<region>
hivel=127
key=D4
loop_end=260699
loop_mode=loop_continuous
loop_start=68008
loop_xfade=23068
lovel=0
lpc=83RcQloM4sItn4ZCZvqzwbaN+UHq4sXBFsSEQZmE1MDyA0HBIXDZQDW4UUGmsI7BmocZQSus1sB29P8/eSnQQOGJx8DoJNZA3P2IwNjjB8DIzUlAwfYTv+lKqMBOOqFA
lpc_rms=-30.09
sample=Alto_sustain_PP_C#4.opus
tune=-101
</region>

<region>
hivel=127
key=D5
loop_end=253595
loop_mode=loop_continuous
loop_start=66155
loop_xfade=22439
lovel=0
lpc=B4WxQaXW4MG9+/xAo4lMwT6jikF8J+LACxQ5QWCzvcAC2Sy94epDwOtBQT/aqT2/jmNnQG6toL8DIwjAMzBsQNt1zL9wrnNApj28v39c8j9Z65fAyh+NP201OcCH8LxA
lpc_rms=-32.51
sample=Alto_sustain_PP_C#5.opus
tune=-99
</region>

<region>
hivel=127
key=C#4
loop_end=257275
loop_mode=loop_continuous
loop_start=67115
loop_xfade=22765
lovel=0
lpc=DIDZQkm3WcOyQOJCglPJwcchREJITLbBcYRAQfTtjMGYjGPB+2W/QdwDGED0T5nBZd/CQB9cycBW59E/r3wpQZTfpMDjpo5Auac3QDX9nsBswsw/hJfVv9ZQMcG91DZB
lpc_rms=-26.34
sample=Alto_sustain_PP_C4.opus
tune=-101
</region>

<region>
hivel=127
key=C#5
loop_end=257306
loop_mode=loop_continuous
loop_start=67123
loop_xfade=22768
lovel=0
lpc=e3UAQcOBQsG75Z9ARQOewEWiA0FSh5zA4RhvQJ2xGsDsbSe9VaGqPhSbJL0saXC/Z1IRQHW7RL9jTBe/mKBIPoKp8b59ICI/hT6kPvmwmz9t7vG/W+sTP9IRr79jGNY/
lpc_rms=-39.93
sample=Alto_sustain_PP_C5.opus
tune=-97
</region>

<region>
hivel=127
key=C#6
loop_end=253246
loop_mode=loop_continuous
loop_start=66064
loop_xfade=22408
lovel=0
lpc=x5+BQv+FlsHAHYfAyUmMwbBBmkHUObM/Z+cMQTehG0Gg25A+K04NQXz4dUH98EjAevA/QfxtBUEuTQpAYMCPQFV3UkF9xL1ArVsdQZLHkcCJ7aPBw4gcwSQeYUEKM6lB
lpc_rms=-17.28
sample=Alto_sustain_PP_C6.opus
tune=-100
</region>

<region>
hivel=127
key=E4
loop_end=260856
loop_mode=loop_continuous
loop_start=68049
loop_xfade=23082
lovel=0
lpc=pjtNQrFR7cJeA6RCZ83awUADFkJSSPbBgyNZQeUeG8H90A7B7ROPQbgwNcA+1Q7B9Bs/QT5eMsH1WP4/RPXsQPWmxMCPasA+yGFBP/jJyD6SJ1O+xIreP+cUc8Bj6hJA
lpc_rms=-29.77
sample=Alto_sustain_PP_D#4.opus
tune=-100
</region>

<region>
hivel=127
key=E5
loop_end=277664
loop_mode=loop_continuous
loop_start=72434
loop_xfade=24569
lovel=0
lpc=EY2nQqdd6MI3PUNCNRVDwuBQeUIeyQXCSCsXQmLmgcGe3ew/wBUnwUF0vEAgRUzB7wPdQRC5MMGD7nS/XYs6QYCEQcFqCVBAuS/Rv0EBBkHX/gLBnIQUQbsvtT//hgM/
lpc_rms=-20.43
sample=Alto_sustain_PP_D#5.opus
tune=-99
</region>

<region>
hivel=127
key=D#4
loop_end=258082
loop_mode=loop_continuous
loop_start=67325
loop_xfade=22836
lovel=0
lpc=/aWqQhbWQcP84QFDPfsnwhqYUUJGphPCkA1NQbs2DMGJg1pA9epAv751TEAECpPBsa+dQYIEM8GIiHFAcEkAQQUoR8FveTBBqexDP/V43MAJ+JBAAC/NwBastb53Z4BA
lpc_rms=-25.21
sample=Alto_sustain_PP_D4.opus
tune=-99
</region>

<region>
hivel=127
key=D#5
loop_end=268815
loop_mode=loop_continuous
loop_start=70125
loop_xfade=23786
lovel=0
lpc=5uCQQuK7zcLL1ERC2KUswnxedUI0kinCZ4zfQfZyAMEoCjHAAjAzQfLDFsEgI/O+RagFQUMM2sD/XxVASsRCQbi10sBpmTfAl1OAPlx1NkFjAVLBrUcaQateKMG+f29B
lpc_rms=-21.83
sample=Alto_sustain_PP_D5.opus
tune=-100
</region>

<region>
hivel=127
key=F4
loop_end=258301
loop_mode=loop_continuous
loop_start=67383
loop_xfade=22856
lovel=0
lpc=9wxYQq+148I48YxCus7XwWP6FUIHqtfBtzhiQedoFcGzi2Y/BaGYQL09Fr8emynBv4AQQeNyf8AyKZa/n9kMQb/UF8FehoZAYIcwQB5qJMBz2UE/sxUcvUn+ocDBGJZA
lpc_rms=-29.57
sample=Alto_sustain_PP_E4.opus
tune=-98
</region>

<region>
hivel=127
key=F5
loop_end=295801
loop_mode=loop_continuous
loop_start=77165
loop_xfade=26174
lovel=0
lpc=l3GAQnXmqMJsRB1CKQsDwr7dNkKBVfTB3Oi/QfX9ksAyiFLAzl67P6HIUUA8vaLAb0yOQeIDScF/8cU/ss+WQEnI7T/cDT/AKapKQBXaoUBwGIbAiWCwQFdpxr6PaKBA
lpc_rms=-21.98
sample=Alto_sustain_PP_E5.opus
tune=-99
</region>

<region>
hivel=127
key=G4
loop_end=264939
loop_mode=loop_continuous
loop_start=69114
loop_xfade=23443
lovel=0
lpc=9qO3QkH2RcO8RgZDf1J4wlIMikIamUrC/PggQnjolsEhaaDBAP9LQcWOdkFYP7zBvBS5Qadwg8GjD6jAiYFjQQhSJMFlgQRBYcwFwDLVVz+6BUy/Pg6cQNp+LcGtb8lA
lpc_rms=-23.38
sample=Alto_sustain_PP_F#4.opus
tune=-99
</region>

<region>
hivel=127
key=G5
loop_end=253691
loop_mode=loop_continuous
loop_start=66180
loop_xfade=22448
lovel=0
lpc=pPEZQrEEG8IXiRhBxzpxwTzSpUGCOQ/BUvJcQccFZsDsWtu/eugRwAGEN0BxhoM/2zAcQLZhvj9hr9i/YVu/QMxmxMBztp9Aw7b2vxHr2j+++RZARXBrQEhdfkDt8NHA
lpc_rms=-27.49
sample=Alto_sustain_PP_F#5.opus
tune=-99
</region>

<region>
hivel=127
key=F#4
loop_end=274648
loop_mode=loop_continuous
loop_start=71647
loop_xfade=24302
lovel=0
lpc=XJe1Ql+fN8MW0/NC6AuIwiNrl0L6YmvCJPdNQtLM1sFe3kHB8/TVQPZQykHGqiLCUrz1Qf7IbcGTKqXA0H1FQQ4LtsCcNi1Bs93XwAWCkT8LwcrADkO8QJxzzMBTqb5A
lpc_rms=-22.63
sample=Alto_sustain_PP_F4.opus
tune=-100
</region>

<region>
hivel=127
key=F#5
loop_end=266350
loop_mode=loop_continuous
loop_start=69482
loop_xfade=23568
lovel=0
lpc=W097QdvEksGroM1AIcCXwDuqDkEVbzjARJWFQNBoNMBQowU/9Lh6wAj4CUH8+J3AilvAQB3kWcAnvWG/bBTtP+Zy+D+vq0O/ryFBQIqINMDH3fE/fbIDv9Bhtz9zg+o/
lpc_rms=-35.32
sample=Alto_sustain_PP_F5.opus
tune=-99
</region>

<region>
hivel=127
key=A3
loop_end=262354
loop_mode=loop_continuous
loop_start=68440
loop_xfade=23214
lovel=0
lpc=6IgOQsJ6msJALTBC63WPwJAWM0GiJfXAc/ZlPwCRYcBZyIu/B/8jP0SGaEDeM5s8oQ0kv1JgQsCCxUO/CjltQDxnpL5uTKk+poemv4BOVr/D8ak/9FyYvpdt0L62rfQ+
lpc_rms=-35.87
sample=Alto_sustain_PP_G#3.opus
tune=-99
</region>

<region>
hivel=127
key=A4
loop_end=274575
loop_mode=loop_continuous
loop_start=71628
loop_xfade=24296
lovel=0
lpc=ZJKJQQu/BML9zq1BqB1bwVpya0HMNiTB7iEbQS58vcBEcaK/lUf6Pxqo8j9jM6zAl1W2QI5KiMCy/k4/MwHoP7MX7b8q4cU/6nX0Pj3Nlb/ZmBw/3aMdv3CyAz8kAsI9
lpc_rms=-35.34
sample=Alto_sustain_PP_G#4.opus
tune=-97
</region>

<region>
hivel=127
key=A5
loop_end=263293
loop_mode=loop_continuous
loop_start=68685
loop_xfade=23297
lovel=0
lpc=caJdQaWrTsEXML5AEa+wwAFUlkDU/4LAJBSwQMmd8j7voO+/4p2YP9xOPr8gVlbAMp7LQP07cz47WGS/IP6Kv15oUj9Pe/W/XRA8QAW64j+yQAc+GpbJvxGoBkBVDoHA
lpc_rms=-32.74
sample=Alto_sustain_PP_G#5.opus
tune=-101
</region>

<region>
hivel=127
key=G#4
loop_end=276786
loop_mode=loop_continuous
loop_start=72205
loop_xfade=24491
lovel=0
lpc=RTA8Qhdwv8J1RnlCL34DwgI8D0IUdcjBwoSxQQuGOsH6/B/AvX07QCg2GECdCUvBKuZpQe4gJ8EuWow/1An5QC2/B8GPC/dAbKkAP5/lAsA+tfK/RCwwvsA6KcD9KX1A
lpc_rms=-27.54
sample=Alto_sustain_PP_G4.opus
tune=-98
</region>

<region>
hivel=127
key=G#5
loop_end=246104
loop_mode=loop_continuous
loop_start=64201
loop_xfade=21776
lovel=0
lpc=zIQzQkpVMcIdeblBbtGHwQNKu0FT4FfBi+FCQRzKfkCYxBw/NP+fP0k7rr8N4SHABcdnQc5joz+yaZdAWagfQE+4RcAvrx3AC+sKQUZBK0A6GZlAb07EPzM9LEBUyg2+
lpc_rms=-21.83
sample=Alto_sustain_PP_G5.opus
tune=-99
</region>
</group>

<group>
amp_veltrack=0
ampeg_attack=2.5
ampeg_release=0.35
group_label=MF
lpc_hicc1=84
lpc_locc1=43
volume=-3

<region>
hivel=127
key=B3
loop_end=264999
loop_mode=loop_continuous
loop_start=69130
loop_xfade=23448
lovel=0
lpc=jTpGQiwJAMNeJudCv+p6wrYhY0KPIzXC9pPsQTN8xMEsk71A9cr4QFa3m8AvdtPApCKXQYXyn8G1PxxB7DqUQGaJOcH+yxRB2qXxwCdtukBql23ArxilQP4JxcAAvi5A
lpc_rms=-25.17
sample=Alto_sustain_MF_A#3.opus
tune=-101
</region>

<region>
hivel=127
key=B4
loop_end=271524
loop_mode=loop_continuous
loop_start=70832
loop_xfade=24026
lovel=0
lpc=RER5QSrM+cH8p6JB6vkrwTowYkFDky3B9t7dQDHzrsBvoe4/EutaPzl8Jz/l83jAM26jQE7wn8BxuTlAsR6mPzlQVcC8ZmRAygZhwAQuZkDHL07AzaGgQJpt3MCi6mtA
lpc_rms=-26.14
sample=Alto_sustain_MF_A#4.opus
tune=-100
</region>

<region>
hivel=127
key=B5
loop_end=265868
loop_mode=loop_continuous
loop_start=69356
loop_xfade=23525
lovel=0
lpc=DBeWQSI9LMGSgKhAdOgEwLa1f0BhKCbAyhWyP44T8z+4Wpa/1sSJvVO2gEDcUU3AoM8BQO8hyD+LiJ6/+vh6P1cSQT8h+Bk/TXkFv7hWtz9htqw/Y2pTvh5UqcA3lqTA
lpc_rms=-23.57
sample=Alto_sustain_MF_A#5.opus
tune=-99
</region>

<region>
hivel=127
key=A#3
loop_end=264569
loop_mode=loop_continuous
loop_start=69017
loop_xfade=23410
lovel=0
lpc=3m8NQu7jq8J0+opCz2D8weBfBELT8unB0ONvQU6dKsH6TodA6HaJQHPMSsCJEQHBloB2QfYwSsEJjz9A7anmQLmx4sA9/CNAc/dmPqKaJ8D4aKo/lA0Wv+dAAUAQT4e/
lpc_rms=-28.70
sample=Alto_sustain_MF_A3.opus
tune=-100
</region>

<region>
hivel=127
key=A#4
loop_end=276424
loop_mode=loop_continuous
loop_start=72110
loop_xfade=24459
lovel=0
lpc=BUy3QS8aKMLLxK1BXlM6wXlSq0ElWIDBXm8wQeheJMFKmY9Az9lgwJFK90AFdSTBdgAVQZHWucASFIU/cS0tQAo3U8CdQrE/yZ2OP+4O3r5pJIq/aKS/P6PyGL4k9B2+
lpc_rms=-23.06
sample=Alto_sustain_MF_A4.opus
tune=-99
</region>

<region>
hivel=127
key=A#5
loop_end=271142
loop_mode=loop_continuous
loop_start=70732
loop_xfade=23992
lovel=0
lpc=2YQaQsC/+cEM/QxBYRyBwOc1OEHACBvBpahLQckMdMBSGkS+9FrUv4I/B0FnjQvBu0hzQdRasMCc2A7AzidiQDnhxz5PP9G+mnsCQSCIQMAJogu/D7wLQJWikUDGHmLB
lpc_rms=-16.74
sample=Alto_sustain_MF_A5.opus
tune=-98
</region>

<region>
hikey=C4
hivel=127
lokey=C4
loop_end=264454
loop_mode=loop_continuous
loop_start=68988
loop_xfade=23400
lovel=0
lpc=pOkhQoRAv8JktphCvEo4wsmSUULPIhXCPA/BQQwpmcFwoJw93w7UQFwDGMBvX4/Ah8FbQdH7U8HSzo1A3kKlQDplAcEKak1A26yXv60iK0ACpeS/Z4hbP4Mp6789ebQ/
lpc_rms=-25.35
sample=Alto_sustain_MF_B3.opus
tune=-101
</region>

<region>
hivel=127
key=C5
loop_end=262398
loop_mode=loop_continuous
loop_start=68451
loop_xfade=23218
lovel=0
lpc=1ChWQfb5vMGRr1JBDETcwEPUG0HT9wXBTNzXQJIjhMCuLd0/oNLQv7K4LEBwkZbAkWaaQKA8U8B9/LQ+fQQBQHaOiL+6yrQ/V/sYwJgoLEBj5qG/rRAWQGkij8CHwiNA
lpc_rms=-29.02
sample=Alto_sustain_MF_B4.opus
tune=-102
</region>

<region>
hivel=127
key=C6
loop_end=269229
loop_mode=loop_continuous
loop_start=70233
loop_xfade=23823
lovel=0
lpc=fsoBQu0fncFQzIbAl3KiwKtBT0Fr1CfAGYvLP6/GIkDngfw/kk0MwN9YDEHf6KXAURFqQDQJjUDJTmXAvIaEQP2eAUBiVS+/TH9xQEAOeUCkeLvAaAQPwfVelL89KyZB
lpc_rms=-17.23
sample=Alto_sustain_MF_B5.opus
tune=-98
</region>

<region>
hivel=127
key=D4
loop_end=269637
loop_mode=loop_continuous
loop_start=70340
loop_xfade=23859
lovel=0
lpc=eoMpQgyFz8Jf0qdCriAXwogjKEIlhyjCvzO4QccP5sCD60zAOojiQJknbsCCGQTBS5FkQYVGGsG9MItAnp0iQBlVAMEFNPhADJc+wDMF9z9mp4jAl8AqP6MqnD9vf+c+
lpc_rms=-26.16
sample=Alto_sustain_MF_C#4.opus
tune=-102
</region>

<region>
hivel=127
key=D5
loop_end=269461
loop_mode=loop_continuous
loop_start=70294
loop_xfade=23843
lovel=0
lpc=PBE7QWP3X8EEmQBABmdBwMvD/kCfLG/AsNIjQDkBc7+CTES/Xhj3PSKzH0BQhn/AlZEvQOkgkr/mwvA9JjhyvtItMD+mrQpATT2GvwSAEUDixBnAWWmWv8EEgL9xCE9A
lpc_rms=-26.83
sample=Alto_sustain_MF_C#5.opus
tune=-99
</region>

<region>
hivel=127
key=C#4
loop_end=266741
loop_mode=loop_continuous
loop_start=69584
loop_xfade=23603
lovel=0
lpc=dtlpQnAaF8PGTwdDMkGQwiJFkELGepDCF/RTQkbB/sFkSLlAclRFQB8qm0BaWnvB6pyzQRfZq8H2LRBBX5P/QHSoIMGpSt1ARy3kwJO5XECnmFy/wnwnQG/5nsA4rTxA
lpc_rms=-22.48
sample=Alto_sustain_MF_C4.opus
tune=-100
</region>

<region>
hivel=127
key=C#5
loop_end=268686
loop_mode=loop_continuous
loop_start=70091
loop_xfade=23775
lovel=0
lpc=uXGXQWnM68Ff+CFB7VWDwFCeVUE/1RzBWG/DQDB7qcAOUsw/ytnwP4r7xD/gytfAsdmfQE93+74AI1O/lc8zQL67jcD+ixNA/5EePkONnkDzfG3AToKzv2J+R8B9U51A
lpc_rms=-23.57
sample=Alto_sustain_MF_C5.opus
tune=-101
</region>

<region>
hivel=127
key=C#6
loop_end=262970
loop_mode=loop_continuous
loop_start=68600
loop_xfade=23269
lovel=0
lpc=26ESQsgNwMB7pg/BYfYAwaT+AkHq8DVA/NXjPwGUyUCzgCxA7vKNPyOzB0FZY/E9i9ubQGI8rUABB54++t+NQMt9gkAkmIVAWjy1QLF+CL8niXHBscIfwSwXQUGi1mBB
lpc_rms=-17.78
sample=Alto_sustain_MF_C6.opus
tune=-100
</region>

<region>
hivel=127
key=E4
loop_end=270923
loop_mode=loop_continuous
loop_start=70675
loop_xfade=23973
lovel=0
lpc=QUhaQkloC8O1tPJChS1gwt/DZELpcYTC65ZDQonG0sEFpApA9iLGQPjeFkAAI2DBq6iXQZgIWMElN5VAD1+0QIK/CcEovKBAiGtGwDkF2D9y2zrAqhlFQCE0gDyiXz2/
lpc_rms=-19.10
sample=Alto_sustain_MF_D#4.opus
tune=-101
</region>

<region>
hivel=127
key=E5
loop_end=270616
loop_mode=loop_continuous
loop_start=70595
loop_xfade=23946
lovel=0
lpc=TVaCQi6XrsJ8PRNCc3GawUGj60EtPLrBKuOyQdxhy8BTc79AY/HHwFMYXEFSX7HBN7SLQSpVDcFh675AwlrJQMz4TD8uSZ1ALxUmwLGMTb8S6b/ADTSgQJSNOMA8k1pB
lpc_rms=-12.35
sample=Alto_sustain_MF_D#5.opus
tune=-98
</region>

<region>
hivel=127
key=D#4
loop_end=277031
loop_mode=loop_continuous
loop_start=72269
loop_xfade=24513
lovel=0
lpc=QS+WQneyPsMfDx9DVXKSwoufm0IdV5zCq+xnQlixBsImqaXACwmIQUTZ178uR5jBylfnQVFdr8FJPd1A/ejLQEFaEMEOY0hB9bZqwcvfGEGpz9HAMKXfQAkIA8EULIxA
lpc_rms=-19.26
sample=Alto_sustain_MF_D4.opus
tune=-99
</region>

<region>
hivel=127
key=D#5
loop_end=277252
loop_mode=loop_continuous
loop_start=72326
loop_xfade=24533
lovel=0
lpc=C9sNQrP/HMKHYvJA30E2wWROnkEoEdXAfb6cQIErlD7taRDAdxnVPzrinkA6QQ7BUba1QBZYYL996zHAfYwcQFHz8j9/PuhAYJWGvskITkDYd0nBxpjEPy6Hqr+friRB
lpc_rms=-18.02
sample=Alto_sustain_MF_D5.opus
tune=-100
</region>

<region>
hivel=127
key=F4
loop_end=269285
loop_mode=loop_continuous
loop_start=70248
loop_xfade=23828
lovel=0
lpc=h2s+QlIy+8LXwOdCZo5twqH1YUJumnXCt3wjQrn2ecHCSSI+veggQGP+6T5pqmDBS/7GQYgRjcFydbtAS3uwQIboTMGj8v9AjG3SPk7eMD/7XKXAITmGQIktKMCXSrU/
lpc_rms=-21.46
sample=Alto_sustain_MF_E4.opus
tune=-99
</region>

<region>
hivel=127
key=F5
loop_end=280233
loop_mode=loop_continuous
loop_start=73104
loop_xfade=24796
lovel=0
lpc=M/VPQgdEksLzHgVCpCx1wdcB/UG9JcDBxdhEQZp08T4A0XfACCq3QBTmEUDT93/AdvaYQIaunr/oZfK/7nk8QdVoy8B8+4hA6B+YwG4k1kA1PxPAN3B5QL1LWcBV2gZB
lpc_rms=-14.57
sample=Alto_sustain_MF_E5.opus
tune=-99
</region>

<region>
hivel=127
key=G4
loop_end=269734
loop_mode=loop_continuous
loop_start=70365
loop_xfade=23867
lovel=0
lpc=bcdZQvnrAsOYX9lCy5ppwnfjf0Km/nrCdwQWQm6gesEKvSVAtMXzQCePk8A4/FHBjVCaQRUYW8GRbQ5BO+ZVQHjiUsH1T81AqsLMvTFNqkBl8OTAb1pZQBzsg8C+wlpA
lpc_rms=-19.32
sample=Alto_sustain_MF_F#4.opus
tune=-100
</region>

<region>
hivel=127
key=G5
loop_end=248172
loop_mode=loop_continuous
loop_start=64740
loop_xfade=21960
lovel=0
lpc=gHosQtUGPMKgk0xB9FXJwDnim0GG3U3BcK/UQPRUr7+5uJI/3hsiQE11AEGOg3XBWsozQYWagUBE6eo/yPdYQPrAJsC6FqPAP4nCQISTgkAw9XE89Jg0wERciUBQqzc/
lpc_rms=-16.68
sample=Alto_sustain_MF_F#5.opus
tune=-96
</region>

<region>
hivel=127
key=F#4
loop_end=272990
loop_mode=loop_continuous
loop_start=71214
loop_xfade=24156
lovel=0
lpc=v3MvQmUy2sId2rlCNBIxwigXMkJzqR3CTD2kQVZJj8FA+u5AYY7EQLXdAj+sao7Bk63SQc1FmcGEL7dALMudQMUbCMGjgEZA8Qn3v5EHykDbGZ/A9ckCQdCcUMHi5dZA
lpc_rms=-22.42
sample=Alto_sustain_MF_F4.opus
tune=-99
</region>

<region>
hivel=127
key=F#5
loop_end=278039
loop_mode=loop_continuous
loop_start=72532
loop_xfade=24602
lovel=0
lpc=DHh3QcyNiMHfhthA8KBcwARO80DDPKjAPEIWQEgplEAZFIrAzfJ0QLT5Yj9wsVDAQqW+P/cBCkAP9AY/aOHoP0fbpz/4fqC/c5kzv91JsT9jXcg/zZ3Uvnj9qj8emxdA
lpc_rms=-26.05
sample=Alto_sustain_MF_F5.opus
tune=-95
</region>

<region>
hivel=127
key=A3
loop_end=281092
loop_mode=loop_continuous
loop_start=73328
loop_xfade=24872
lovel=0
lpc=boZrQgvtGcOc3AtD5gyOwp8scEKz90zCd/sLQk4Gx8GCroE/w/IbQbnlrz/57nPB7EzDQRaJvsEzwSFBcTDOQJh0FsEsvdtAAbk6wISeVcCVeTRAioeYv0mczT8hQhK/
lpc_rms=-24.77
sample=Alto_sustain_MF_G#3.opus
tune=-98
</region>

<region>
hivel=127
key=A4
loop_end=271531
loop_mode=loop_continuous
loop_start=70834
loop_xfade=24026
lovel=0
lpc=83umQRe8LMI3fQNC4wytwUlgu0Gty5vBtdyAQVCuc8Ge9C5ByjuqwBXrr0AFpy7B7N5MQYUTKcHBTM1AdMp3v6cp/78hb1s/yQuoP/YTGr99BxW/NARfPxdjPL8ysyk/
lpc_rms=-25.61
sample=Alto_sustain_MF_G#4.opus
tune=-99
</region>

<region>
hivel=127
key=A5
loop_end=273153
loop_mode=loop_continuous
loop_start=71257
loop_xfade=24170
lovel=0
lpc=mn4MQrKP38Fo0M9An8OaP2A0T0GsxwLB+p8CQRDBCD/yTqQ/sOkiQJzmCkHsC+/A+2oJQU90MUBFeQXAzji8QCgPfkBHuAq/W3lFQAUJI0D26xpAj5ymP2IlIkHigxDB
lpc_rms=-16.42
sample=Alto_sustain_MF_G#5.opus
tune=-98
</region>

<region>
hivel=127
key=G#4
loop_end=270292
loop_mode=loop_continuous
loop_start=70510
loop_xfade=23917
lovel=0
lpc=7rjBQXkZVcLCMBpCbHWOwYBTokEqJ5jBjZJdQWuXEsF+Ovg/b0V1QGBz8b/UNtbADGglQb0K8sDnEE9AEZwIQE3QM8BeACo+8h8gP6EiFEDX+KDAl7BkQFYYTcAQThdA
lpc_rms=-25.65
sample=Alto_sustain_MF_G4.opus
tune=-98
</region>

<region>
hivel=127
key=G#5
loop_end=263614
loop_mode=loop_continuous
loop_start=68768
loop_xfade=23326
lovel=0
lpc=muW8QZDQr8EHbLRA2fapPidVBkE2k0/AJt4bQCPQ6j/Ev+K/2lm1QFxYLEAZLp/AUVvPQDGQVT8hsEO/9q9aQEEuFD9MePg/QOAKQA69Lz4vsdI+sUAuQDirpUDTSR7A
lpc_rms=-21.00
sample=Alto_sustain_MF_G5.opus
tune=-98
</region>
</group>

<group>
amp_veltrack=0
ampeg_attack=2.5
ampeg_release=0.35
group_label=FF
lpc_hicc1=127
lpc_locc1=85
volume=-3

<region>
hivel=127
key=B3
loop_end=265983
loop_mode=loop_continuous
loop_start=68980
loop_xfade=12258
lovel=0
lpc=etvRQbOKasKjuS1CSyO8weSO+UHxN+bBjwiqQUFlhsFPOoNAq7/PPv173UA23vvAbHMKQYTmGcFhMzhAR+mHPzqtl79APAVAV+/Dvthm0b5ua4u/zjsOP3gafT/ZEy+/
lpc_rms=-23.15
sample=Alto_sustain_FF_A#3.opus
tune=-99
</region>

<region>
hivel=127
key=B4
loop_end=269758
loop_mode=loop_continuous
loop_start=70371
loop_xfade=23870
lovel=0
lpc=fRBlQZQW48GT5Y9Bi8YawciyYUE9mkjBoCgQQfGBwsCMEeg/gpWePofNDEBSdZbA9jmRQA1ymcDM7y1AyBx+P1x7fL+/DNE9UbUbPEW8UT/RqIq99J5tv2a1rL+PkOw/
lpc_rms=-20.64
sample=Alto_sustain_FF_A#4.opus
tune=-97
</region>

<region>
hivel=127
key=B5
loop_end=263763
loop_mode=loop_continuous
loop_start=68807
loop_xfade=23339
lovel=0
lpc=kUXjQbzrksFWErZAjZpXwMe+CEG0axPAvus4PRfCN0Bn89i/0PCFQJ6aaEDI6ffAujCYQIZVIkDvWBBAQ2kiv/zo7T4dPCU/kY9gP7PmdUCS46m/hB5xv5mDpMDsIpHA
lpc_rms=-12.33
sample=Alto_sustain_FF_A#5.opus
tune=-101
</region>

<region>
hivel=127
key=A#3
loop_end=275609
loop_mode=loop_continuous
loop_start=89745
loop_xfade=41073
lovel=0
lpc=bPjlQSs/i8KsDGpCltn8wfUrE0JPmgzCVaiyQTzJicE9zA9B9aLLv+EAuD+/rP2+i5lcQP7poMDn9DfAbX8PQUzYDsGn8LRADDbtv6+fJEBFzF/Aj2AcQE0+578qomI/
lpc_rms=-24.64
sample=Alto_sustain_FF_A3.opus
tune=-99
</region>

<region>
hivel=127
key=A#4
loop_end=282876
loop_mode=loop_continuous
loop_start=73793
loop_xfade=25030
lovel=0
lpc=IhCxQd6pRcL2HAhCqOpIwSXhpEFiP7DB/R0sQcX4k8DKID5Ax4CPvt6nUMCUIBs/AMrvQJ+g8cBX/Ro+X/QvQFtgUMDdMGpAOX6Fv2MG4z/3QUrAyecaQHroXsAHvhlA
lpc_rms=-16.90
sample=Alto_sustain_FF_A4.opus
tune=-98
</region>

<region>
hivel=127
key=A#5
loop_end=273613
loop_mode=loop_continuous
loop_start=71377
loop_xfade=24211
lovel=0
lpc=Wqi6QfkojcG1Au9AvaKjv7xPtEA0roHAARSBQEyFOUA8TWLAiGpEQAORh0Cj/5/ALvnTQGNm1r/azD0/cnSSQG67JcCiDsQ/InRHQEUCSLwGBZg+0L0lQP2Vh0DSlDfB
lpc_rms=-15.05
sample=Alto_sustain_FF_A5.opus
tune=-101
</region>

<region>
hikey=C4
hivel=127
lokey=C4
loop_end=272385
loop_mode=loop_continuous
loop_start=79001
loop_xfade=8937
lovel=0
lpc=5kKBQWiuCMJNCrRBWmwXwaeEaEHXm3fB9dgwQRC4zcCEDQS/y/00QBJsmj8DIpfAhU/JQBjCqsBZwcM/9V4SQDkHJMC6J8m9jbexvfmUA0BEWSDAtSQHQC1+p7+cYQk/
lpc_rms=-25.89
sample=Alto_sustain_FF_B3.opus
tune=-100
</region>

<region>
hivel=127
key=C5
loop_end=272805
loop_mode=loop_continuous
loop_start=71166
loop_xfade=24139
lovel=0
lpc=5GeBQQzb38FcV2ZBpuYBwRiGTEGiSCTBr3QUQTVN6sAqJzpA1hmUwJq2CEH4vgPBYbvmQMbZh8Cm574/tQohuwue1r7gNbg+/FB5v015xT+CXt+/a+oCQKxDM8CeEyBA
lpc_rms=-21.67
sample=Alto_sustain_FF_B4.opus
tune=-100
</region>

<region>
hivel=127
key=C6
loop_end=271950
loop_mode=loop_continuous
loop_start=70943
loop_xfade=24064
lovel=0
lpc=QQwNQp8WpcHK0hs/dxlnwHcfMEEMbSK/GLWOP/YR1EBDn1fApzf8QCg0l0B0f9TAPODQQI3jskBI4SZA5Oawv69moUDE3e4/4u+QP64n20Dn7E+/0YpDwfcW9sAf/3VB
lpc_rms=-12.68
sample=Alto_sustain_FF_B5.opus
tune=-98
</region>

<region>
hivel=127
key=D4
loop_end=267187
loop_mode=loop_continuous
loop_start=71844
loop_xfade=10835
lovel=0
lpc=7A9kQewt9cGWl6JBMm38wA1JQ0E70zbBcU7RQMxHdMCm/t2/hSE7QDctjT/MPYzA3PzIQOAWp8Cd2B5Aa8S+PF+ld78s7nm/hK8AQCG0hDvFhFa/ZD80Ppl3w74NnNU+
lpc_rms=-23.69
sample=Alto_sustain_FF_C#4.opus
tune=-99
</region>

<region>
hivel=127
key=D5
loop_end=275913
loop_mode=loop_continuous
loop_start=71977
loop_xfade=24414
lovel=0
lpc=l8xqQY8HsMErPNRAsPVOwMtEM0EO2ODA3R1sQOMsGsCJQSE/BoKSvxqmNkBKM4/AiuahQOZLAsADMYO/38XaP8tFdr/O+ww/IX6UP7vlDEAaeSfAq5CavwXC6b+Kp35A
lpc_rms=-20.42
sample=Alto_sustain_FF_C#5.opus
tune=-96
</region>

<region>
hivel=127
key=C#4
loop_end=271122
loop_mode=loop_continuous
loop_start=75851
loop_xfade=11372
lovel=0
lpc=6o+HQSLWEsLMzcxBues4wSuAckE9OWzBQfMqQQuA8MAtFMU+AtVeQKBpjD8Bwq/AFWm8QKRsj8BOBm0+wX9VQB8PEMBMjDG/+V0EQKQoPL8g85C/xtQ/PjIwcT9pW42+
lpc_rms=-23.51
sample=Alto_sustain_FF_C4.opus
tune=-100
</region>

<region>
hivel=127
key=C#5
loop_end=279925
loop_mode=loop_continuous
loop_start=73024
loop_xfade=24769
lovel=0
lpc=dZgqQYnGhsGMMsZAw3Z3wIhlFUFVQKnABFIlQCGEH8AXAMg+w2/tvli3FEB4+QfARj/3P1zxdr8jclm/UQNYP1rib79vKMM/MXHAPmcToD8e4QzAaEuDPd09179WfiFA
lpc_rms=-22.72
sample=Alto_sustain_FF_C5.opus
tune=-104
</region>

<region>
hivel=127
key=C#6
loop_end=267235
loop_mode=loop_continuous
loop_start=69713
loop_xfade=23646
lovel=0
lpc=v3/9QR13NMH6Fz3A/PvPwCp0EUEuSBK/LGHGQCeLI0BD4q5AUuGrPr0T7ED3tto/rld+QOjazEBk5cs8OGfFQGmxO0CqzB9Ak37KQAqnKEASemvBJn2NwKeoKkG7ZDNB
lpc_rms=-14.38
sample=Alto_sustain_FF_C6.opus
tune=-99
</region>

<region>
hivel=127
key=E4
loop_end=276863
loop_mode=loop_continuous
loop_start=72225
loop_xfade=24498
lovel=0
lpc=G3UPQguypcJtB3lC4HDFwSlpAEIaMQnCoCW3QVrBm8HEZBtBc1prwEj6KEFxzlzB7OJlQV1+88BO1qjAGms0QScaS8G5MS1BMJKawDp1JkCd5RDA0v+xPyMtQ78frKg+
lpc_rms=-15.67
sample=Alto_sustain_FF_D#4.opus
tune=-99
</region>

<region>
hivel=127
key=E5
loop_end=253928
loop_mode=loop_continuous
loop_start=66242
loop_xfade=22469
lovel=0
lpc=x7AEQsDfPcK0ZKRBFCQJwTHYfEGZWRfBf+e3QKj4MT9IjbnA2ni4QA7z6L21lm7AcID1QFJ2XcCFCcS/fgJsQEgTr72KOAhALWelvek6mD9Nc2LAuRZ7QBf3l8ApT/BA
lpc_rms=-13.14
sample=Alto_sustain_FF_D#5.opus
tune=-102
</region>

<region>
hivel=127
key=D#4
loop_end=275590
loop_mode=loop_continuous
loop_start=71893
loop_xfade=24386
lovel=0
lpc=/H7iQV1if8IbjjtC4maywVju6UH5tejBTpmoQWwjg8GSd4hAG7ysQJpukj9qRSfBvaA1QULHD8FYu2NA/KdTQMUSesALl6S8GCDCP87EkT/YyFfA8zo6QKHSbb9rPke+
lpc_rms=-17.85
sample=Alto_sustain_FF_D4.opus
tune=-98
</region>

<region>
hivel=127
key=D#5
loop_end=280054
loop_mode=loop_continuous
loop_start=73057
loop_xfade=24781
lovel=0
lpc=eTbVQSoHDcLt0iZBE0zBwAgtbkHxAvXA6JhCQEvjpb4liAQ/ZWkiP6FLB0D4Xr3AorytQIo2BMAIjnW/RXuDQC/Fmr9yna0/GyseQMU0L78QaRjAWQqBvy6OA8Ajk+JA
lpc_rms=-14.72
sample=Alto_sustain_FF_D5.opus
tune=-102
</region>

<region>
hivel=127
key=F4
loop_end=276640
loop_mode=loop_continuous
loop_start=72166
loop_xfade=24479
lovel=0
lpc=Ap7PQUVPdMLZlUlCiELdwXUD8EERRuLBAgKwQUBuhsGtjodA2n9JQI6Yp706HOrA4y9tQbM9H8GRiSw/f+gaP0TFqr/qT84/Q0CnPnPwgz/uAXHAFSO9QMA7vcBWHh1A
lpc_rms=-19.02
sample=Alto_sustain_FF_E4.opus
tune=-98
</region>

<region>
hivel=127
key=F5
loop_end=269855
loop_mode=loop_continuous
loop_start=70397
loop_xfade=23878
lovel=0
lpc=qgoBQq7kJMI0NV5BDkm7wCliXEGvMMfAsA/qQM/fdMCNNFc/YYwswCM8gUAacoY+o8OIQKMJh7/RQZnAQ/X2QI1RcsC0H0dAtNLYP95acL73//u9p/CGPmUGY7/29LpA
lpc_rms=-13.21
sample=Alto_sustain_FF_E5.opus
tune=-98
</region>

<region>
hivel=127
key=G4
loop_end=283842
loop_mode=loop_continuous
loop_start=74045
loop_xfade=25116
lovel=0
lpc=t3HSQTHcdsIYCUBCv2m7wfL/9kH7H/jBzWaZQb3BXcEjTrJAw2d/Px8DQb6nB9G/EEr+QFL/DcF1gLm+WQR1QJGmIMCqlk0/+x0fQIzzB8C3T/I+ypvEPjXNyL9435Q/
lpc_rms=-19.82
sample=Alto_sustain_FF_F#4.opus
tune=-98
</region>

<region>
hivel=127
key=G5
loop_end=270988
loop_mode=loop_continuous
loop_start=70692
loop_xfade=23978
lovel=0
lpc=JqiIQSJ7hsG6iYZApuervvK18UDZyT7ApPzZP1uArz7yAu8/6siQvyZrSkDJOHa/LYdjQJDAJL68x8O/goGJQFCaCz5zrsk+wbDmP5zFH7/XS6I/freSPzlzHkCOu5Q/
lpc_rms=-19.20
sample=Alto_sustain_FF_F#5.opus
tune=-105
</region>

<region>
hivel=127
key=F#4
loop_end=280688
loop_mode=loop_continuous
loop_start=73222
loop_xfade=24837
lovel=0
lpc=Co7VQYRmeMJ9T0JCotm5wf+V20Fswt7BJ96XQYWGR8Fk4PpAlggMwZsxIUG06z7BcVyAQU/fOcE0Abk/eklUQEB3hMDxpBxAeP/kPxtXP8DgKvc/R5Q4wD45H0Cwaj6+
lpc_rms=-17.71
sample=Alto_sustain_FF_F4.opus
tune=-99
</region>

<region>
hivel=127
key=F#5
loop_end=270265
loop_mode=loop_continuous
loop_start=70503
loop_xfade=23914
lovel=0
lpc=YW6kQWIjlsGmu1lAqZNWwIlzBUHur1DAl7sKQBWSGEDhPwlA93GFv5JkUUCAKv/AcEvYQLs+Db8CghRA1q4+QOUmpj86xgrAlq9pPbsl3b67iKE/McLsP60XikBcIxu+
lpc_rms=-16.94
sample=Alto_sustain_FF_F5.opus
tune=-91
</region>

<region>
hivel=127
key=A3
loop_end=276583
loop_mode=loop_continuous
loop_start=72152
loop_xfade=24473
lovel=0
lpc=5pjuQR+ui8Jw7mRChYYIwo84GUJaR//BnDzGQSUetcEzVBZBOz1CwL7XCEFHLUPBM69XQeScL8F3YVlAXKGZQJF5usBKZqU/3eUiQODuvsBSTIxAl8ZpvwdoM0DQ2g7A
lpc_rms=-21.68
sample=Alto_sustain_FF_G#3.opus
tune=-102
</region>

<region>
hivel=127
key=A4
loop_end=279642
loop_mode=loop_continuous
loop_start=72950
loop_xfade=24744
lovel=0
lpc=KHIUQWFvk8GtaklBK2jXwO25A0FAzebA/ve9QOq6h8BSGmY+wDqtPbFbR0C9/oLAaAt0QIEsRMBUlQ0/7fwMP3j/AL0pLy4/MblQvu7VAL+ddJW9/hxXPby3hD7ZnBM+
lpc_rms=-25.32
sample=Alto_sustain_FF_G#4.opus
tune=-98
</region>

<region>
hivel=127
key=A5
loop_end=271144
loop_mode=loop_continuous
loop_start=70733
loop_xfade=23992
lovel=0
lpc=9DRGQW79D8FqnDVACtkyPXGEgUDQODm/q4vIP4IGPUCXlJm/WP7WP/mzB0CgqqK/nFFZQMNCoT9UU7G9kVToPw+5jz91BNs+TUCrPx8ACkDiTWo/2WfpPmgUTUC6i/2/
lpc_rms=-20.45
sample=Alto_sustain_FF_G#5.opus
tune=-98
</region>

<region>
hivel=127
key=G#4
loop_end=286552
loop_mode=loop_continuous
loop_start=74752
loop_xfade=25356
lovel=0
lpc=0C17QXqSBMK7Lq1BJ2L3wCjrKEGDASDBj0v2QMBy/cDAK3FAsVzYv0BDtEBjnOPAG8PLQF8Bj8DN3Tu/RWRKQIWAl7+baFu/1ygiQIVTHsDwyvo/+gkfwMG91z9kXAu+
lpc_rms=-20.51
sample=Alto_sustain_FF_G4.opus
tune=-98
</region>

<region>
hivel=127
key=G#5
loop_end=270773
loop_mode=loop_continuous
loop_start=70636
loop_xfade=23959
lovel=0
lpc=cCCDQYfOgcFvDs5AL3AUv1sYr0CnZQ3A2EQHQP0i2z8rWaA+65f5Pk4ZXkC8OwLA/eOLQFJ5Zr8UEMG+y4aQQEl7Ez2nW0Q8vsUDQK/Zkj9xauI+iGGjP9xIVECJExa/
lpc_rms=-16.22
sample=Alto_sustain_FF_G5.opus
tune=-100
</region>
</group>